<svg width="97" height="16" viewBox="0 0 97 16" fill="none" xmlns="http://www.w3.org/2000/svg">
<g id="Group 10">
<g id="&#208;&#156;&#208;&#181;&#209;&#130;&#209;&#128;&#208;&#184;&#208;&#186;&#208;&#176;">
<path d="M16.1717 0L8.56826 8.29132L0.964779 0H0.783203V15.8207H3.8019V7.35014L8.45478 12.3025H8.65905L13.3573 7.35014V15.8207H16.376V0H16.1717Z" fill="#121212"/>
<path d="M18.1889 12.9748V15.8207H28.743V12.9748H18.1889ZM27.9032 6.56583H18.1889V9.41177H27.9032V6.56583ZM28.6068 0.134453H18.1889V3.0028H28.6068V0.134453Z" fill="#121212"/>
<path d="M29.6185 0.134453V3.0028H41.1939V0.134453H29.6185ZM33.9082 15.8207H36.9269V5.33333H33.9082V15.8207Z" fill="#121212"/>
<path d="M48.3284 0.134453H42.4499V3.0028H48.2603C49.781 3.0028 50.7343 3.94398 50.7343 5.28852C50.7343 6.63305 49.781 7.59664 48.2603 7.59664H42.4499V15.8207H45.4686V10.4426H48.3284C51.8691 10.4426 53.8437 8.15686 53.8437 5.28852C53.8437 2.42017 51.8691 0.134453 48.3284 0.134453Z" fill="#121212"/>
<path d="M58.1088 0.134453H55.0901V16H55.2944L64.3051 7.03641V15.8207H67.3238V0H67.1195L58.1088 8.94118V0.134453Z" fill="#121212"/>
<path d="M78.0915 15.8207H81.8592L76.7297 7.86555L81.5188 0.134453H78.205L74.0288 6.54342H72.1676V0.134453H69.1489V15.8207H72.1676V9.38936H74.0969L78.0915 15.8207Z" fill="#121212"/>
<path d="M90.9728 0.134453H87.886L82.0756 15.8207H85.5028L89.4294 4.61625L93.356 15.8207H96.7832L90.9728 0.134453Z" fill="#121212"/>
</g>
</g>
</svg>
