<svg width="128" height="23" viewBox="0 0 128 23" fill="none" xmlns="http://www.w3.org/2000/svg">
<g id="&#208;&#156;&#208;&#181;&#209;&#130;&#209;&#128;&#208;&#184;&#208;&#186;&#208;&#176;">
<path d="M20.9899 0.820068L10.9399 11.9201L0.889902 0.820068H0.649902V22.0001H4.6399V10.6601L10.7899 17.2901H11.0599L17.2699 10.6601V22.0001H21.2599V0.820068H20.9899Z" fill="#121212"/>
<path d="M23.6562 18.1901V22.0001H37.6062V18.1901H23.6562ZM36.4962 9.61007H23.6562V13.4201H36.4962V9.61007ZM37.4262 1.00007H23.6562V4.84007H37.4262V1.00007Z" fill="#121212"/>
<path d="M38.7633 1.00007V4.84007H54.0633V1.00007H38.7633ZM44.4333 22.0001H48.4233V7.96007H44.4333V22.0001Z" fill="#121212"/>
<path d="M63.4933 1.00007H55.7233V4.84007H63.4033C65.4133 4.84007 66.6733 6.10007 66.6733 7.90007C66.6733 9.70007 65.4133 10.9901 63.4033 10.9901H55.7233V22.0001H59.7133V14.8001H63.4933C68.1733 14.8001 70.7833 11.7401 70.7833 7.90007C70.7833 4.06007 68.1733 1.00007 63.4933 1.00007Z" fill="#121212"/>
<path d="M76.4208 1.00007H72.4308V22.2401H72.7008L84.6108 10.2401V22.0001H88.6008V0.820068H88.3308L76.4208 12.7901V1.00007Z" fill="#121212"/>
<path d="M102.833 22.0001H107.813L101.033 11.3501L107.363 1.00007H102.983L97.4632 9.58007H95.0032V1.00007H91.0132V22.0001H95.0032V13.3901H97.5532L102.833 22.0001Z" fill="#121212"/>
<path d="M119.859 1.00007H115.779L108.099 22.0001H112.629L117.819 7.00007L123.009 22.0001H127.539L119.859 1.00007Z" fill="#121212"/>
</g>
</svg>
